<?xml version="1.0" encoding="UTF-8"?>
<svg id="Vrstva_1" data-name="Vrstva 1" xmlns="http://www.w3.org/2000/svg" viewBox="0 0 225 225">
  <defs>
    <style>
      .cls-1 {
        fill: #fcdb21;
      }

      .cls-1, .cls-2, .cls-3, .cls-4, .cls-5, .cls-6 {
        stroke-width: 0px;
      }

      .cls-2 {
        fill: #016bb5;
      }

      .cls-3 {
        fill: #ec1b2d;
      }

      .cls-4 {
        fill: #fddd1e;
      }

      .cls-5 {
        fill: #046cb5;
      }

      .cls-6 {
        fill: #fefefe;
      }
    </style>
  </defs>
  <path class="cls-6" d="M.08,112.5C.08,76.19.13,39.89,0,3.58-.01.6.6,0,3.58,0c72.61.11,145.23.11,217.84,0,2.98,0,3.58.6,3.58,3.58-.11,72.61-.11,145.23,0,217.84,0,2.98-.6,3.58-3.58,3.58-72.61-.11-145.23-.11-217.84,0-2.98,0-3.59-.6-3.58-3.58.13-36.31.08-72.61.08-108.92ZM210.77,132.99c1.54-7.88,3.48-15.72,2.79-23.86.24-8.63-.93-17.05-3.69-25.24.01-.5.16-1.04.02-1.49-11.26-36.73-35.02-60.76-72.3-71.01-4.25-3.13-9.56-2.11-14.19-2.83-12.23-1.88-24.6-.42-36.66,2.7-7.37,1.62-14.35,4.38-20.98,7.88-26.62,14.05-43.98,35.55-51.64,64.76-3.11,8.18-3.54,16.65-2.84,25.26-.5,8.72-.54,17.38,3.1,25.6-.04.64-.26,1.35-.08,1.92,11.62,36.41,35.48,60.32,72.41,70.88,8.34,1.84,16.69,3.56,25.3,3.21,8.96.44,17.61-1.36,26.23-3.47,15.81-4.01,29.79-11.59,41.78-22.53,14.92-13.61,25.48-29.99,29.95-49.95.26-.61.53-1.21.79-1.82Z"/>
  <path class="cls-3" d="M209.87,83.88c2.75,8.19,3.93,16.61,3.69,25.24-6.49,0-12.98,0-19.47,0-17.48,0-34.96-.02-52.43.04-1.74,0-4.44-1.02-4.36,2.37.19,7.8-.61,15.61.41,23.39-.03,23.01-.06,46.02-.07,69.04,0,1.13-.24,2.34.62,3.32-8.62,2.11-17.28,3.91-26.23,3.47,0-32.27-.08-64.54.09-96.8.02-4.02-1.16-4.93-5.01-4.91-31.93.15-63.87.09-95.8.1-.71-8.6-.27-17.08,2.84-25.26,24.23-.04,48.46-.07,72.7-.11,16.94.02,33.89.03,50.83.05l72.22.04Z"/>
  <path class="cls-4" d="M11.29,109.15c31.94,0,63.87.06,95.8-.1,3.85-.02,5.03.89,5.01,4.91-.17,32.27-.09,64.54-.09,96.8-8.61.35-16.97-1.38-25.3-3.21.02-22.74-.07-45.49.15-68.23.04-3.86-1.13-4.64-4.75-4.61-22.57.15-45.15.05-67.73.03-3.64-8.22-3.6-16.88-3.1-25.6Z"/>
  <path class="cls-4" d="M137.66,83.84c-16.94-.02-33.89-.03-50.83-.05-.03-24.18-.05-48.35-.08-72.53,12.06-3.13,24.43-4.59,36.66-2.7,4.63.71,9.94-.3,14.19,2.83.02,24.15.04,48.31.06,72.46Z"/>
  <path class="cls-5" d="M86.75,11.26c.03,24.18.05,48.35.08,72.53-24.23.04-48.46.07-72.7.11,7.66-29.2,25.02-50.7,51.64-64.76,6.63-3.5,13.61-6.26,20.98-7.88Z"/>
  <path class="cls-5" d="M14.39,134.75c22.58.02,45.15.12,67.73-.03,3.62-.02,4.79.75,4.75,4.61-.22,22.74-.13,45.48-.15,68.23-36.93-10.56-60.79-34.48-72.41-70.88-.18-.57.04-1.28.08-1.92Z"/>
  <path class="cls-2" d="M137.66,83.84c-.02-24.15-.04-48.31-.06-72.46,37.27,10.26,61.03,34.28,72.3,71.01.14.45,0,.99-.02,1.49-24.07-.01-48.14-.03-72.22-.04Z"/>
  <path class="cls-2" d="M138.26,207.29c-.85-.99-.62-2.19-.62-3.32.01-23.01.05-46.02.07-69.04,2.82-.04,5.65-.11,8.47-.12,20.93-.08,41.87-.16,62.8-.23l1,.22c-4.46,19.96-15.03,36.35-29.94,49.95-11.99,10.94-25.96,18.52-41.78,22.53Z"/>
  <path class="cls-1" d="M208.98,134.59c-20.93.08-41.87.15-62.8.23-2.82.01-5.65.08-8.47.12-1.02-7.78-.23-15.6-.41-23.39-.08-3.39,2.61-2.36,4.36-2.37,17.48-.06,34.96-.04,52.43-.04,6.49,0,12.98,0,19.47,0,.69,8.14-1.26,15.98-2.79,23.86-1.04.04-1.73.46-1.79,1.6Z"/>
  <path class="cls-4" d="M208.98,134.59c.06-1.13.75-1.56,1.79-1.6-.26.61-.53,1.21-.79,1.82-.33-.07-.67-.15-1-.22Z"/>
</svg>