<svg width="95" height="22" viewBox="0 0 95 22" fill="none" xmlns="http://www.w3.org/2000/svg">
<path d="M13.199 10.7812C13.199 10.3631 13.0431 9.95795 12.7313 9.63125L3.62493 0.470454C3.00139 -0.156818 2.00112 -0.156818 1.37757 0.470454C0.754026 1.09773 0.754026 2.10398 1.37757 2.73125L9.39273 10.7943L1.37757 18.8574C0.754026 19.4847 0.754026 20.4909 1.37757 21.1182C2.00112 21.7454 3.00139 21.7454 3.62493 21.1182L12.7443 11.9443C13.0561 11.6176 13.2119 11.1994 13.199 10.7812Z" fill="#444444"/>
<path d="M10.4677 17.4705C11.0912 16.8432 12.0915 16.8432 12.715 17.4705L14.079 18.8426C14.7026 19.4699 14.7026 20.4761 14.079 21.1034C13.4555 21.7307 12.4552 21.7307 11.8317 21.1034L10.4677 19.7312C9.84411 19.104 9.84411 18.0977 10.4677 17.4705Z" fill="#444444"/>
<path d="M5.70333 9.99292C6.02809 10.3196 6.00211 10.6725 5.67735 10.9992L1.84514 14.8412C1.44243 15.1418 0.87085 14.8674 0.87085 14.3577V6.60826C0.87085 6.0986 1.44243 5.82417 1.84514 6.12474L5.70333 9.99292Z" fill="#444444"/>
<path d="M24.5131 14.2591L22.6425 10.992H21.6292V14.2591H20.3042V6.10455H23.0972C23.7207 6.10455 24.2403 6.20909 24.669 6.43125C25.1107 6.65341 25.4225 6.94091 25.6303 7.30682C25.8512 7.67273 25.9551 8.09091 25.9551 8.53523C25.9551 9.07102 25.7992 9.55455 25.4874 9.9858C25.1886 10.417 24.708 10.7045 24.0715 10.8614L26.072 14.246H24.5131V14.2591ZM21.6292 9.93352H23.0972C23.5908 9.93352 23.9675 9.80284 24.2143 9.55455C24.4742 9.30625 24.6041 8.96648 24.6041 8.5483C24.6041 8.13011 24.4742 7.80341 24.2273 7.56818C23.9805 7.31989 23.6038 7.20227 23.0972 7.20227H21.6292V9.93352ZM29.7223 7.1892V9.58068H32.5153V10.6653H29.7223V13.1614H32.866V14.246H28.3843V6.09148H32.866V7.1892H29.7223ZM37.8804 6.10455C38.7378 6.10455 39.4912 6.27443 40.1407 6.6142C40.7903 6.94091 41.2969 7.42443 41.6476 8.0517C42.0114 8.66591 42.1802 9.39773 42.1802 10.221C42.1802 11.0443 41.9984 11.7631 41.6476 12.3773C41.2969 12.9915 40.7903 13.4619 40.1407 13.7886C39.4912 14.1153 38.7378 14.2722 37.8804 14.2722H35.2433V6.10455H37.8804ZM37.8804 13.1744C38.8287 13.1744 39.5562 12.9131 40.0628 12.4034C40.5694 11.8938 40.8162 11.1619 40.8162 10.221C40.8162 9.28011 40.5694 8.53523 40.0628 7.99943C39.5562 7.46364 38.8287 7.20227 37.8804 7.20227H36.5683V13.1744H37.8804ZM45.5578 7.1892V9.58068H48.3637V10.6653H45.5708V13.1614H48.7145V14.246H44.2328V6.09148H48.7145V7.1892H45.5578ZM53.7418 14.3375C53.1962 14.3375 52.7026 14.246 52.2739 14.05C51.8322 13.854 51.4945 13.5795 51.2476 13.2267C51.0008 12.8739 50.8709 12.4688 50.8709 11.9983H52.2999C52.3258 12.3511 52.4687 12.6386 52.7026 12.8608C52.9494 13.083 53.3001 13.2006 53.7418 13.2006C54.1965 13.2006 54.5602 13.096 54.82 12.8739C55.0798 12.6517 55.2097 12.3642 55.2097 12.0114C55.2097 11.7369 55.1318 11.5148 54.9629 11.3449C54.807 11.175 54.6122 11.0443 54.3654 10.9398C54.1315 10.8483 53.8068 10.7438 53.3911 10.6392C52.8585 10.4955 52.4298 10.3517 52.092 10.221C51.7673 10.0773 51.4815 9.84205 51.2476 9.54148C51.0138 9.24091 50.8969 8.83579 50.8969 8.32614C50.8969 7.85568 51.0138 7.45057 51.2476 7.09773C51.4815 6.74489 51.8062 6.47045 52.2219 6.2875C52.6376 6.10455 53.1313 6 53.6769 6C54.4563 6 55.1058 6.19602 55.5995 6.60114C56.1061 6.99318 56.3789 7.52898 56.4438 8.22159H54.9889C54.9629 7.92102 54.82 7.67273 54.5732 7.46364C54.3134 7.25455 53.9756 7.15 53.5599 7.15C53.1832 7.15 52.8714 7.24148 52.6246 7.4375C52.3778 7.63352 52.2609 7.92102 52.2609 8.28693C52.2609 8.53523 52.3388 8.74432 52.4817 8.9142C52.6376 9.07102 52.8325 9.2017 53.0663 9.29318C53.3001 9.38466 53.6119 9.4892 54.0276 9.59375C54.5602 9.7375 55.0019 9.89432 55.3397 10.0381C55.6774 10.1818 55.9632 10.417 56.197 10.7307C56.4438 11.0312 56.5608 11.4494 56.5608 11.9591C56.5608 12.3773 56.4438 12.7693 56.223 13.1352C56.0022 13.5011 55.6774 13.8017 55.2617 14.0239C54.82 14.233 54.3264 14.3375 53.7418 14.3375ZM60.1721 6.10455V14.2591H58.8471V6.10455H60.1721ZM68.512 8.45682C68.3042 8.0517 68.0054 7.75114 67.6417 7.54204C67.265 7.33295 66.8363 7.22841 66.3426 7.22841C65.81 7.22841 65.3294 7.34602 64.9137 7.59432C64.498 7.84261 64.1602 8.18239 63.9264 8.6267C63.6926 9.07102 63.5756 9.59375 63.5756 10.1688C63.5756 10.7568 63.6926 11.2795 63.9264 11.7239C64.1732 12.1682 64.498 12.508 64.9137 12.7562C65.3294 13.0045 65.81 13.1222 66.3426 13.1222C67.0701 13.1222 67.6547 12.9131 68.1093 12.508C68.564 12.1028 68.8368 11.554 68.9407 10.8483H65.9009V9.77671H70.3697V10.8222C70.2788 11.4494 70.0579 12.0375 69.6942 12.5733C69.3304 13.1091 68.8628 13.5273 68.2782 13.854C67.7066 14.1676 67.0571 14.3244 66.3556 14.3244C65.5892 14.3244 64.9007 14.1545 64.2641 13.8017C63.6406 13.4358 63.134 12.9392 62.7572 12.3119C62.3935 11.6847 62.2116 10.9659 62.2116 10.1688C62.2116 9.37159 62.3935 8.65284 62.7572 8.02557C63.134 7.3983 63.6276 6.9017 64.2641 6.54886C64.9007 6.18295 65.6022 6.01307 66.3556 6.01307C67.213 6.01307 67.9794 6.22216 68.6549 6.65341C69.3304 7.07159 69.8241 7.67273 70.1229 8.45682H68.512ZM79.0474 14.2591H77.7223L73.7212 8.16932V14.2591H72.3962V6.09148H73.7212L77.7223 12.1682V6.09148H79.0474V14.2591ZM82.8536 7.1892V9.58068H85.6466V10.6653H82.8536V13.1614H85.9973V14.246H81.5156V6.09148H85.9973V7.1892H82.8536ZM92.5835 14.2591L90.7129 10.992H89.6996V14.2591H88.3746V6.10455H91.1675C91.7911 6.10455 92.3107 6.20909 92.7394 6.43125C93.1811 6.65341 93.4928 6.94091 93.7137 7.30682C93.9345 7.67273 94.0384 8.09091 94.0384 8.53523C94.0384 9.07102 93.8825 9.55455 93.5708 9.9858C93.272 10.417 92.7913 10.7045 92.1548 10.8614L94.1553 14.246H92.5835V14.2591ZM89.6996 9.93352H91.1675C91.6612 9.93352 92.0379 9.80284 92.2847 9.55455C92.5445 9.30625 92.6744 8.96648 92.6744 8.5483C92.6744 8.13011 92.5445 7.80341 92.2977 7.56818C92.0509 7.31989 91.6742 7.20227 91.1675 7.20227H89.6996V9.93352Z" fill="#444444"/>
</svg>
